<svg version="1.1" id="Layer_1" xmlns="http://www.w3.org/2000/svg" x="0" y="0" viewBox="0 0 333.96 107.23" style="enable-background:new 0 0 333.96 107.23" xml:space="preserve">
    <style>
        .st0{fill:#010101}
    </style>
    <path class="st0" d="m219.63 78.86 1.44 2.44c.29.34.2.57-.14.83-1.63 1.23-3.65 2.01-6.22 2.01-6.08 0-11.02-4.91-11.02-10.99s4.93-10.93 11.02-10.93c2.58 0 4.59.77 6.25 1.98.29.26.26.58.17.72l-1.52 2.58c-.17.23-.46.23-.8.03-1.35-.83-2.56-1.32-4.1-1.32-3.87 0-6.77 3.04-6.77 6.94 0 3.87 2.9 7.05 6.77 7.05 1.55 0 3.01-.58 4.01-1.35.34-.25.66-.3.91.01zM224.97 63.11c0-.37.17-.57.54-.57h14.03c.37 0 .57.2.57.57v2.78c0 .37-.2.57-.57.57h-10.38v4.33h7.92c.37 0 .63.17.63.58v2.72c0 .37-.23.57-.63.57h-7.92v5.25h10.64c.37 0 .61.2.61.57v2.75c0 .37-.23.57-.61.57h-14.28c-.37 0-.54-.2-.54-.57l-.01-20.12zM243.39 63.17c0-.34.2-.63.63-.63h3.36c.29 0 .69.14.83.43l9.44 13.57V62.97c.11-.34.4-.43.63-.43h2.9c.29 0 .69.26.69.63v20.02c0 .43-.23.63-.69.63h-2.84c-.46 0-.61-.2-.83-.46l-9.95-14.34V83.2c.03.43-.17.63-.63.63h-2.9c-.43 0-.63-.2-.63-.63l-.01-20.03zM264.41 63.08c0-.37.17-.54.54-.54h15.06c.37 0 .57.17.57.54v2.72c0 .37-.2.57-.57.57h-5.51v16.87c0 .37-.17.57-.54.57h-3.1c-.37 0-.54-.2-.54-.57V66.37h-5.36c-.37 0-.54-.2-.54-.57l-.01-2.72zM283.66 63.11c0-.37.17-.57.54-.57h14.03c.37 0 .58.2.58.57v2.78c0 .37-.2.57-.58.57h-10.38v4.33h7.92c.37 0 .63.17.63.58v2.72c0 .37-.23.57-.63.57h-7.92v5.25h10.64c.37 0 .61.2.61.57v2.75c0 .37-.23.57-.61.57h-14.28c-.37 0-.54-.2-.54-.57l-.01-20.12zM302.08 63.11c0-.32.17-.57.54-.57h9.12c3.93 0 6.74 3.39 6.74 7 0 2.41-1.46 4.67-3.61 5.93l3.9 7.74c.14.26 0 .61-.37.61h-3.7c-.32 0-.49-.11-.66-.49l-3.41-6.88h-4.36v6.8c0 .37-.17.57-.57.57h-3.07c-.37 0-.54-.2-.54-.57l-.01-20.14zm4.18 3.13v6.43h4.48c1.98 0 3.47-1.35 3.47-3.21 0-1.81-1.49-3.21-3.47-3.21l-4.48-.01zM136.39 38.09c0-.37.2-.61.57-.61h3.1c.37 0 .54.23.54.61V58.2c0 .37-.17.57-.54.57h-3.1c-.4 0-.57-.2-.57-.57V38.09zM145.25 38.13c0-.34.2-.63.63-.63h3.36c.29 0 .69.14.83.43l9.44 13.57V37.93c.11-.34.4-.43.63-.43h2.9c.29 0 .69.26.69.63v20.02c0 .43-.23.63-.69.63h-2.84c-.46 0-.61-.2-.83-.46l-9.95-14.34v14.17c.03.43-.17.63-.63.63h-2.9c-.43 0-.63-.2-.63-.63l-.01-20.02zM168 38.13c0-.34.2-.63.63-.63H172c.29 0 .69.14.83.43l9.44 13.57V37.93c.11-.34.4-.43.63-.43h2.9c.29 0 .69.26.69.63v20.02c0 .43-.23.63-.69.63h-2.84c-.46 0-.61-.2-.83-.46l-9.98-14.35v14.17c.03.43-.17.63-.63.63h-2.9c-.43 0-.63-.2-.63-.63V38.13h.01zM200.59 59.07c-6.05 0-10.9-4.88-10.9-10.93 0-6.08 4.85-10.96 10.9-10.96 6.05 0 10.99 4.88 10.99 10.96-.01 6.05-4.94 10.93-10.99 10.93zm0-17.87c-3.84 0-6.72 3.07-6.72 6.94 0 3.84 2.87 6.91 6.72 6.91 3.87 0 6.77-3.07 6.77-6.91 0-3.87-2.9-6.94-6.77-6.94zM222.91 58.26c-.14.37-.4.54-.72.54h-2.41c-.34 0-.61-.17-.75-.54l-7.92-20.17c-.17-.4.03-.61.37-.61h3.27c.34 0 .57.14.72.54l5.48 14.86 5.48-14.85c.11-.37.37-.54.69-.54h3.33c.34 0 .54.23.37.63l-7.91 20.14zM236.18 38.04c.17-.37.43-.54.72-.54h2.41c.32 0 .57.17.72.54l8.09 20.14c.17.37-.03.61-.4.61h-3.13c-.34 0-.58-.14-.72-.51l-1.38-3.44h-8.81l-1.35 3.44c-.14.37-.4.51-.72.51h-3.15c-.37 0-.54-.2-.37-.61l8.09-20.14zm-1.14 13.08h6.08L238.11 43l-3.07 8.12zM246 38.04c0-.37.17-.54.54-.54h15.06c.37 0 .57.17.57.54v2.72c0 .37-.2.58-.57.58h-5.51v16.87c0 .37-.17.57-.54.57h-3.1c-.37 0-.54-.2-.54-.57V41.34h-5.36c-.37 0-.54-.2-.54-.58l-.01-2.72zM265.24 38.09c0-.37.2-.61.57-.61h3.1c.37 0 .54.23.54.61V58.2c0 .37-.17.57-.54.57h-3.1c-.4 0-.57-.2-.57-.57V38.09zM283.95 59.07c-6.05 0-10.9-4.88-10.9-10.93 0-6.08 4.85-10.96 10.9-10.96s10.99 4.88 10.99 10.96c0 6.05-4.94 10.93-10.99 10.93zm0-17.87c-3.84 0-6.72 3.07-6.72 6.94 0 3.84 2.87 6.91 6.72 6.91 3.87 0 6.77-3.07 6.77-6.91 0-3.87-2.9-6.94-6.77-6.94zM298.58 38.13c0-.34.2-.63.63-.63h3.36c.29 0 .69.14.83.43l9.44 13.57V37.93c.11-.34.4-.43.63-.43h2.9c.29 0 .69.26.69.63v20.02c0 .43-.23.63-.69.63h-2.84c-.46 0-.61-.2-.83-.46l-9.95-14.34v14.17c.03.43-.17.63-.63.63h-2.9c-.43 0-.63-.2-.63-.63l-.01-20.02zM228.1 16.83c0-.27.14-.41.41-.41h4.88c3.86 0 7.65 3.31 7.65 7.57 0 4.08-3.33 7.43-7.57 7.57h-4.96c-.27 0-.41-.14-.41-.41V16.83zm5.01 2.34h-2.02v9.64h2.02c2.79 0 4.92-2.14 4.92-4.82s-2.11-4.82-4.92-4.82zM243.3 16.83c0-.27.12-.41.39-.41h9.99c.27 0 .41.14.41.41v1.98c0 .27-.14.41-.41.41h-7.39v3.08h5.63c.27 0 .45.12.45.41v1.94c0 .27-.16.41-.45.41h-5.63v3.74h7.57c.27 0 .43.14.43.41v1.96c0 .27-.16.41-.43.41H243.7c-.27 0-.39-.14-.39-.41l-.01-14.34zM269.86 31.2c-.11.27-.29.39-.51.39h-1.72c-.25 0-.43-.12-.53-.39l-5.63-14.35c-.12-.29.02-.43.27-.43h2.33c.25 0 .41.1.51.39l3.9 10.57 3.9-10.57c.08-.27.27-.39.49-.39h2.37c.25 0 .39.16.27.45l-5.65 14.33zM277.46 16.84c0-.27.14-.43.41-.43h2.2c.27 0 .39.16.39.43v14.31c0 .27-.12.41-.39.41h-2.2c-.29 0-.41-.14-.41-.41V16.84zM283.77 16.86c0-.25.14-.45.45-.45h2.39c.2 0 .49.1.59.3l6.72 9.66v-9.66c.08-.25.29-.3.45-.3h2.06c.2 0 .49.18.49.45v14.25c0 .3-.16.45-.49.45h-2.02c-.32 0-.43-.14-.59-.32l-7.08-10.21v10.09c.02.3-.12.45-.45.45h-2.06c-.3 0-.45-.14-.45-.45l-.01-14.26zM310.55 28.04l1.02 1.73c.2.25.14.41-.11.59-1.16.88-2.59 1.43-4.43 1.43-4.33 0-7.84-3.49-7.84-7.82s3.51-7.78 7.84-7.78c1.84 0 3.27.55 4.45 1.41.2.18.18.41.12.51l-1.08 1.84c-.12.16-.32.16-.57.02-.96-.59-1.82-.94-2.92-.94-2.75 0-4.82 2.16-4.82 4.94 0 2.75 2.06 5.02 4.82 5.02 1.11 0 2.14-.41 2.86-.96.25-.18.48-.22.66.01zM314.35 16.84c0-.27.14-.43.41-.43h2.2c.27 0 .39.16.39.43v14.31c0 .27-.12.41-.39.41h-2.2c-.29 0-.41-.14-.41-.41V16.84zM116.26 43.11l-.01-.04-13.79-17.91-.05-.06-14.7-6.96-.13-.06-21.3-4.13-22.32 5.13-13.6 4.01-.09.03-8 9.17-6.25 4.79-1.47 12.68 4.24 15.44 13.08 7.28 9.02-2.1 7.26 8.39 14.06-.25L79.48 99.6l1.84-.77-1.7-17.14c1.8.77 5.9 2.63 5.94 2.65l.08.04 10.7-1.61 12.14-7.47 1.75-7.77 5.88-2.5 4.11-11.25-3.96-10.67zm1.6 10.66-3.5 9.56-4.52 1.92-7.44-16.03 12.18-4.2 3.28 8.75zM61.87 63.2l7.48 9.03-6.92 4.01-13.27.24-5.93-6.85 18.64-6.43zm20.4-23.85 5.18-17.08 4.51 9.72-9.69 7.36zm11.5-8.75-4.24-9.13 10.01 4.74-5.77 4.39zm.97 2.07 6.74-5.13 11.94 15.52-11.95 4.12-6.73-14.51zm-1.18 35.3 7.24-16.91 6.85 14.77-14.09 2.14zm-3.64 2.82L85.25 81.7c-.67-.3-1.56-.71-2.46-1.11-2.83-1.25-3.7-1.56-4.08-1.65-.65-.55-2.82-2.79-5.42-5.61l16.63-2.54zm-19.09 3.17c.65.71 1.75 1.9 2.87 3.09 1.03 1.1 1.87 1.97 2.51 2.6.49.48.82.8 1.08 1.01l1.44 14.44-14.29-17.44 6.39-3.7zm3.14-14.93-3.39 11.19-6.46-7.8 9.85-3.39zm-17.6-30.34-18.68 1.83-4.85-5.85 11.66-3.44 19.39-4.46-7.52 11.92zm-1.51 2.4-7.22 11.44-8.22-9.92 15.44-1.52zm30.94-11.1-6.27 20.7-20.92-11.35 8.22-13.02 18.97 3.67zm-8.42 35.5L81.16 43l11.75-8.94 6.43 13.86-21.96 7.57zm21.2-4.95-7.63 17.82-18.32 2.8 3.94-13.03 22.01-7.59zM62.6 60.58 49.14 44.34l8.27-13.11 21.44 11.65-4.09 13.51-12.16 4.19zM18.64 37.86l4.82-3.69 13.27-1.3 9.41 11.35-14.58 10.4-12.92-16.76zm12.45 19.83 8.26 10.72-7.15 1.66-10.37-5.77 9.26-6.61zm16.48-11.75 12.77 15.42L41.7 67.8l-8.78-11.4 14.65-10.46zm40.07 35.85 4.88-11.39 15.32-2.34-1.31 5.81-10.95 6.73-7.94 1.19zM25.74 31.7l5.15-5.89 4.13 4.99-9.28.9zm4 24.22-9.34 6.66-3.58-13.03 1.05-9.04 11.87 15.41z"/>
</svg>
